<svg width="16" height="16" viewBox="0 0 16 16" fill="none" xmlns="http://www.w3.org/2000/svg">
<path fill-rule="evenodd" clip-rule="evenodd" d="M3.29861 1.44019L4.17549 2.54046C5.40048 1.68435 6.87735 1.26409 8.36955 1.34701C9.86175 1.42993 11.283 2.01122 12.4056 2.99779C13.5282 3.98435 14.2872 5.31912 14.5611 6.78831C14.835 8.25749 14.608 9.77611 13.9163 11.1009C13.2247 12.4257 12.1084 13.4801 10.7463 14.0952C9.38428 14.7103 7.85519 14.8505 6.40399 14.4933C4.95279 14.1361 3.66344 13.3023 2.74242 12.1253C1.8214 10.9483 1.32201 9.49632 1.32423 8.00182C1.32423 7.85444 1.38277 7.7131 1.48698 7.60888C1.5912 7.50467 1.73254 7.44612 1.87992 7.44612C2.0273 7.44612 2.16864 7.50467 2.27285 7.60888C2.37707 7.7131 2.43561 7.85444 2.43561 8.00182C2.43235 9.24616 2.84587 10.4558 3.61022 11.4377C4.37456 12.4196 5.44571 13.1173 6.65281 13.4194C7.85991 13.7216 9.13342 13.6108 10.2702 13.1048C11.407 12.5988 12.3417 11.7267 12.925 10.6276C13.5084 9.52845 13.7069 8.26563 13.4889 7.04053C13.2708 5.81544 12.6488 4.69864 11.7221 3.86827C10.7953 3.03789 9.61722 2.54177 8.37563 2.45904C7.13404 2.3763 5.90051 2.71172 4.87177 3.41179L5.87202 4.66766C5.91739 4.7253 5.93812 4.79855 5.92969 4.87143C5.92125 4.9443 5.88434 5.01088 5.82701 5.05664C5.78466 5.09156 5.73275 5.11287 5.67808 5.11777L1.9705 5.4334C1.93412 5.43653 1.89747 5.43245 1.86267 5.4214C1.82786 5.41036 1.79558 5.39256 1.76766 5.36902C1.73974 5.34549 1.71673 5.31668 1.69995 5.28425C1.68317 5.25182 1.67295 5.21639 1.66987 5.18001C1.6667 5.14362 1.67086 5.10696 1.68209 5.0722L2.81682 1.52854C2.83188 1.48044 2.85975 1.43734 2.89744 1.40386C2.93513 1.37038 2.98121 1.34779 3.03076 1.3385C3.04741 1.33516 3.06435 1.33348 3.08133 1.3335C3.12325 1.33374 3.16457 1.34346 3.2022 1.36194C3.23982 1.38042 3.27278 1.40717 3.29861 1.44019ZM7.60829 4.83042C7.7125 4.7262 7.85384 4.66766 8.00122 4.66766C8.1486 4.66766 8.28994 4.7262 8.39416 4.83042C8.49837 4.93463 8.55692 5.07597 8.55692 5.22335V7.77176L10.6169 9.83172C10.7181 9.93652 10.7741 10.0769 10.7728 10.2226C10.7716 10.3683 10.7131 10.5077 10.6101 10.6107C10.5071 10.7137 10.3677 10.7722 10.222 10.7734C10.0763 10.7747 9.93593 10.7187 9.83112 10.6175L7.60835 8.39469C7.50413 8.2905 7.44556 8.14918 7.44553 8.00182V5.22335C7.44553 5.07597 7.50408 4.93463 7.60829 4.83042Z" fill="currentColor"/>
</svg>
