<svg width="16" height="16" viewBox="0 0 16 16" fill="none" xmlns="http://www.w3.org/2000/svg">
<g id="icon/close">
<path id="Vector" fill-rule="evenodd" clip-rule="evenodd" d="M2.26399 12.4613C1.912 12.8133 1.912 13.384 2.26399 13.736C2.61598 14.088 3.18667 14.088 3.53866 13.736L8 9.27467L12.4613 13.736C12.8133 14.088 13.384 14.088 13.736 13.736C14.088 13.384 14.088 12.8133 13.736 12.4613L9.27467 8L13.736 3.53866C14.088 3.18667 14.088 2.61598 13.736 2.26399C13.384 1.912 12.8133 1.912 12.4613 2.26399L8 6.72533L3.53866 2.26399C3.18667 1.912 2.61598 1.912 2.26399 2.26399C1.912 2.61598 1.912 3.18667 2.26399 3.53866L6.72533 8L2.26399 12.4613Z" fill="white" fill-opacity="0.7"/>
</g>
</svg>
