<svg width="16" height="16" viewBox="0 0 16 16" fill="none" xmlns="http://www.w3.org/2000/svg">
<path fill-rule="evenodd" clip-rule="evenodd" d="M1.33203 3.09107C1.33203 2.16525 2.04251 1.3335 3.01565 1.3335H4.94785C5.67713 1.3335 6.2589 1.80063 6.50467 2.42441H12.9817C13.9549 2.42441 14.6654 3.25616 14.6654 4.18198V12.9093C14.6654 13.8351 13.9549 14.6668 12.9817 14.6668H3.01565C2.04251 14.6668 1.33203 13.8351 1.33203 12.9093V3.09107ZM3.01565 2.66683C2.86551 2.66683 2.66536 2.81193 2.66536 3.09107V12.9093C2.66536 13.1884 2.86551 13.3335 3.01565 13.3335H12.9817C13.1319 13.3335 13.332 13.1884 13.332 12.9093V4.18198C13.332 3.90284 13.1319 3.75774 12.9817 3.75774H5.9648C5.59661 3.75774 5.29813 3.45926 5.29813 3.09107C5.29813 2.81193 5.09799 2.66683 4.94785 2.66683H3.01565Z" fill="currentColor"/>
</svg>
