<svg width="16" height="16" viewBox="0 0 16 16" fill="none" xmlns="http://www.w3.org/2000/svg">
<g id="icon/menu">
<g id="Vector">
<path fill-rule="evenodd" clip-rule="evenodd" d="M2 4C2 3.44772 2.53726 3 3.2 3H12.8C13.4627 3 14 3.44772 14 4C14 4.55228 13.4627 5 12.8 5H3.2C2.53726 5 2 4.55228 2 4Z" fill="#212A3F"/>
<path fill-rule="evenodd" clip-rule="evenodd" d="M2 8C2 7.44771 2.53726 7 3.2 7H12.8C13.4627 7 14 7.44771 14 8C14 8.55228 13.4627 9 12.8 9H3.2C2.53726 9 2 8.55228 2 8Z" fill="#212A3F"/>
<path fill-rule="evenodd" clip-rule="evenodd" d="M2 12C2 11.4477 2.53726 11 3.2 11H12.8C13.4627 11 14 11.4477 14 12C14 12.5523 13.4627 13 12.8 13H3.2C2.53726 13 2 12.5523 2 12Z" fill="#212A3F"/>
</g>
</g>
</svg>
