<svg width="16" height="16" viewBox="0 0 16 16" fill="none" xmlns="http://www.w3.org/2000/svg">
<path fill-rule="evenodd" clip-rule="evenodd" d="M8.0013 2.00033C7.26492 2.00033 6.66797 2.59728 6.66797 3.33366V7.33366C6.66797 8.07004 7.26492 8.66699 8.0013 8.66699C8.73768 8.66699 9.33464 8.07004 9.33464 7.33366V3.33366C9.33464 2.59728 8.73768 2.00033 8.0013 2.00033ZM5.33464 3.33366C5.33464 1.8609 6.52854 0.666992 8.0013 0.666992C9.47406 0.666992 10.668 1.8609 10.668 3.33366V7.33366C10.668 8.80642 9.47406 10.0003 8.0013 10.0003C6.52854 10.0003 5.33464 8.80642 5.33464 7.33366V3.33366Z" fill="white"/>
<path fill-rule="evenodd" clip-rule="evenodd" d="M3.33464 6.00033C3.70283 6.00033 4.0013 6.2988 4.0013 6.66699V7.33366C4.0013 7.85895 4.10477 8.37909 4.30578 8.86439C4.5068 9.3497 4.80144 9.79065 5.17287 10.1621C5.54431 10.5335 5.98527 10.8282 6.47057 11.0292C6.95587 11.2302 7.47601 11.3337 8.0013 11.3337C8.52659 11.3337 9.04673 11.2302 9.53204 11.0292C10.0173 10.8282 10.4583 10.5335 10.8297 10.1621C11.2012 9.79065 11.4958 9.3497 11.6968 8.86439C11.8978 8.37909 12.0013 7.85895 12.0013 7.33366V6.66699C12.0013 6.2988 12.2998 6.00033 12.668 6.00033C13.0362 6.00033 13.3346 6.2988 13.3346 6.66699V7.33366C13.3346 8.03404 13.1967 8.72757 12.9287 9.37464C12.6606 10.0217 12.2678 10.6097 11.7725 11.1049C11.2773 11.6001 10.6894 11.993 10.0423 12.261C9.39521 12.529 8.70168 12.667 8.0013 12.667C7.30092 12.667 6.60739 12.529 5.96032 12.261C5.31325 11.993 4.72531 11.6001 4.23007 11.1049C3.73482 10.6097 3.34197 10.0217 3.07394 9.37464C2.80592 8.72757 2.66797 8.03404 2.66797 7.33366V6.66699C2.66797 6.2988 2.96645 6.00033 3.33464 6.00033Z" fill="white"/>
<path fill-rule="evenodd" clip-rule="evenodd" d="M8.0013 11.3337C8.36949 11.3337 8.66797 11.6321 8.66797 12.0003V14.0003H10.0013C10.3695 14.0003 10.668 14.2988 10.668 14.667C10.668 15.0352 10.3695 15.3337 10.0013 15.3337H6.0013C5.63311 15.3337 5.33464 15.0352 5.33464 14.667C5.33464 14.2988 5.63311 14.0003 6.0013 14.0003H7.33464V12.0003C7.33464 11.6321 7.63311 11.3337 8.0013 11.3337Z" fill="white"/>
</svg>
