<svg width="16" height="16" viewBox="0 0 16 16" fill="none" xmlns="http://www.w3.org/2000/svg">
<path fill-rule="evenodd" clip-rule="evenodd" d="M7.33203 2.66634C4.7547 2.66634 2.66536 4.75568 2.66536 7.33301C2.66536 9.91034 4.7547 11.9997 7.33203 11.9997C9.90936 11.9997 11.9987 9.91034 11.9987 7.33301C11.9987 4.75568 9.90936 2.66634 7.33203 2.66634ZM1.33203 7.33301C1.33203 4.0193 4.01832 1.33301 7.33203 1.33301C10.6457 1.33301 13.332 4.0193 13.332 7.33301C13.332 10.6467 10.6457 13.333 7.33203 13.333C4.01832 13.333 1.33203 10.6467 1.33203 7.33301Z" fill="#919AB0"/>
<path fill-rule="evenodd" clip-rule="evenodd" d="M10.6273 10.6283C10.8876 10.3679 11.3098 10.3679 11.5701 10.6283L14.4701 13.5283C14.7305 13.7886 14.7305 14.2107 14.4701 14.4711C14.2098 14.7314 13.7876 14.7314 13.5273 14.4711L10.6273 11.5711C10.3669 11.3107 10.3669 10.8886 10.6273 10.6283Z" fill="#919AB0"/>
</svg>
