<svg width="39" height="24" viewBox="0 0 39 24" fill="none" xmlns="http://www.w3.org/2000/svg">
<g clip-path="url(#clip0_7501_2312)">
<path d="M6.85041 0.338755L6.78421 0.306225C5.34362 -0.4017 3.60189 0.192249 2.89397 1.63285L0.299309 6.91287C-0.408615 8.35347 0.185332 10.0952 1.62593 10.8031L1.69213 10.8356C3.13272 11.5436 4.87444 10.9496 5.58237 9.50902L8.17703 4.229C8.88495 2.7884 8.29101 1.04668 6.85041 0.338755Z" fill="#F3C25C"/>
<path d="M16.4018 0.352483L16.2797 0.292497C14.8545 -0.407846 13.1315 0.179741 12.4311 1.60491L3.54799 19.6817C2.84765 21.1069 3.43523 22.83 4.8604 23.5303L4.98247 23.5903C6.40764 24.2906 8.13071 23.703 8.83105 22.2779L17.7142 4.20106C18.4145 2.77589 17.827 1.05283 16.4018 0.352483Z" fill="#F3C25C"/>
<path d="M27.2075 4.26142C27.9245 2.80238 27.3231 1.03842 25.8642 0.321513C24.4053 -0.395394 22.6414 0.206227 21.9244 1.66527L19.362 6.8797C18.645 8.33875 19.2464 10.1027 20.7053 10.8196C22.1642 11.5365 23.9281 10.9349 24.6451 9.47586L27.2075 4.26142Z" fill="#FF7246"/>
<path d="M20.7466 17.2155C21.4635 15.7565 20.8621 13.9925 19.4032 13.2756C17.9444 12.5587 16.1805 13.1603 15.4635 14.6194L12.9375 19.7597C12.2205 21.2188 12.8219 22.9827 14.2808 23.6996C15.7397 24.4165 17.5035 23.8149 18.2205 22.3559L20.7466 17.2155Z" fill="#FF7246"/>
<path d="M36.7309 4.26142C37.4479 2.80238 36.8465 1.03842 35.3876 0.321513C33.9287 -0.395394 32.1649 0.206226 31.4479 1.66527L22.6008 19.6686C21.8838 21.1276 22.4853 22.8916 23.9441 23.6085C25.403 24.3254 27.1669 23.7238 27.8839 22.2648L36.7309 4.26142Z" fill="#45D7BB"/>
<path d="M35.028 23.9124C36.8016 23.9124 38.2395 22.4745 38.2395 20.7008C38.2395 18.9271 36.8016 17.4893 35.028 17.4893C33.2543 17.4893 31.8164 18.9271 31.8164 20.7008C31.8164 22.4745 33.2543 23.9124 35.028 23.9124Z" fill="#45D7BB"/>
</g>
<defs>
<clipPath id="clip0_7501_2312">
<rect width="38.2395" height="24" fill="white"/>
</clipPath>
</defs>
</svg>
